# xmcd CD database file
#
# Track frame offsets:
#	150
#	24927
#	47102
#	83117
#
# Disc length: 1200 seconds
#
# Revision: 0
# Processed by: cddbd v1.5.1PL2 Copyright (c) Steve Scherf et al.
# Submitted via: CD2WAV32(JP) R3.22
#
DISCID=2404ae04
DTITLE=東京スカパラダイスオーケストラ - Dear My Sister
DYEAR=1998
DGENRE=Ska
TTITLE0=Dear My Sister
TTITLE1=国境の北、オーロラの果て
TTITLE2=Dear My Sister（オリジナル・カラオケ）
TTITLE3=data
EXTD=
EXTT0=
EXTT1=
EXTT2=
EXTT3=
PLAYORDER=
